# xmcd
#
# Track frame offsets:
#	150
#	14914
#	35592
#	54629
#	73438
#	90645
#	107454
#	125118
#	143253
#	153461
#	173510
#	194700
#	212691
#	229950
#	248608
#	265074
#	283725
#	303465
#	322980
#	342240
#
# Disc length: 4851 seconds
#
# Revision: 0
# Processed by: cddbd v1.5.2PL0 Copyright (c) Steve Scherf et al.
# Submitted via: audiograbber 1.83.01
#
DISCID=2b12f114
DTITLE=Various Artist - R&B Anthems- Classic Jams [CD 2 of 3) (2016)
DYEAR=2016
DGENRE=R&B
TTITLE0=Alicia Keys - Fallin'
TTITLE1=Boyz II Men - The Color Of Love
TTITLE2=Mario - Let Me Love You
TTITLE3=Kelly Rowland - Stole
TTITLE4=Jennifer Hudson - No One Gonna Love You
TTITLE5=Lemar - Someone Should Tell You
TTITLE6=Kandi - Cheatin' On Me
TTITLE7=Toni Braxton - He Wasn't Man Enough
TTITLE8=T-Pain - Keep Going
TTITLE9=Ginuwine - Differences
TTITLE10=Joe - I Wanna Know
TTITLE11=Ruben Studdard - What If
TTITLE12=Babyface - When Can I See You
TTITLE13=Anthony Hamilton - Charlene
TTITLE14=Fantasia - When I See U
TTITLE15=Omarion - O
TTITLE16=Next - ImagineThat
TTITLE17=Maxwell - Sumthin' Sumthin'
TTITLE18=Raheem DeVaughn - I Don't Care
TTITLE19=Kenny Lattimore - Never Too Busy (All Star Head Up Mix)
EXTD=
EXTT0=
EXTT1=
EXTT2=
EXTT3=
EXTT4=
EXTT5=
EXTT6=
EXTT7=
EXTT8=
EXTT9=
EXTT10=
EXTT11=
EXTT12=
EXTT13=
EXTT14=
EXTT15=
EXTT16=
EXTT17=
EXTT18=
EXTT19=
PLAYORDER=
